# xmcd
#
# Track frame offsets: 
#        182
#        16960
#        39437
#
# Disc length: 825 seconds
#
# Revision: 0
# Processed by: cddbd v1.5.2PL0 Copyright (c) Steve Scherf et al.
# Submitted via: ExactAudioCopyFreeDBPlugin 1.0
#
DISCID=18033703
DTITLE=The 2 Live Crew - Mama Juanita Promo
DYEAR=1990
DGENRE=Rap
TTITLE0=Mama Juanita (Mr. Mixx Mix)
TTITLE1=Mama Juanita (Felix Mix)
TTITLE2=Mama Juanita (Wiz Mix)
EXTD=
EXTT0=
EXTT1=
EXTT2=
PLAYORDER=
